<svg id="Слой_1" data-name="Слой 1" xmlns="http://www.w3.org/2000/svg" viewBox="0 0 392.6 146.4"><defs><style>.cls-1{fill:#1d1d1b;}.cls-2{fill:#f8c559;}</style></defs><title>CG_dark</title><path class="cls-1" d="M0,73.2C0,30.2,33,0,78,0c27.4,0,49,10,62.8,28L111,54.6c-8.2-10.4-18-16.4-30.6-16.4-19.6,0-32.8,13.6-32.8,35s13.2,35,32.8,35c12.6,0,22.4-6,30.6-16.4l29.8,26.6c-13.8,18-35.4,28-62.8,28C33,146.4,0,116.2,0,73.2Z"/><path class="cls-1" d="M264,69.4h41v59.2c-17,11.6-40.4,17.8-61,17.8-45.2,0-78.2-30.2-78.2-73.2S198.8,0,245,0c27.6,0,49.8,9.6,64,27L278.8,53.6c-8.8-10.2-19-15.4-31.4-15.4-20.8,0-34,13.4-34,35,0,21,13.2,35,33.4,35a44,44,0,0,0,17.2-3.4Z"/><path class="cls-2" d="M339.8,119.2c0-15.4,11.4-25.6,26.4-25.6s26.4,10.2,26.4,25.6c0,15.2-11.4,26-26.4,26S339.8,134.4,339.8,119.2Z"/></svg>