<svg width="16" height="16" viewBox="0 0 16 16" fill="none" xmlns="http://www.w3.org/2000/svg">
<path d="M6.16687 8.13353H1.5002C1.33451 8.13353 1.2002 7.99922 1.2002 7.83353V1.5002C1.2002 1.33451 1.33451 1.2002 1.5002 1.2002H6.16687C6.33255 1.2002 6.46687 1.33451 6.46687 1.5002V7.83353C6.46687 7.99922 6.33255 8.13353 6.16687 8.13353ZM6.16687 14.8002H1.5002C1.33451 14.8002 1.2002 14.6659 1.2002 14.5002V11.5002C1.2002 11.3345 1.33451 11.2002 1.5002 11.2002H6.16687C6.33255 11.2002 6.46687 11.3345 6.46687 11.5002V14.5002C6.46687 14.6659 6.33255 14.8002 6.16687 14.8002ZM14.5002 14.8002H9.83353C9.66785 14.8002 9.53353 14.6659 9.53353 14.5002V8.16687C9.53353 8.00118 9.66785 7.86687 9.83353 7.86687H14.5002C14.6659 7.86687 14.8002 8.00118 14.8002 8.16687V14.5002C14.8002 14.6659 14.6659 14.8002 14.5002 14.8002ZM9.53353 4.5002V1.5002C9.53353 1.33451 9.66785 1.2002 9.83353 1.2002H14.5002C14.6659 1.2002 14.8002 1.33451 14.8002 1.5002V4.5002C14.8002 4.66589 14.6659 4.8002 14.5002 4.8002H9.83353C9.66785 4.8002 9.53353 4.66589 9.53353 4.5002Z" stroke="#575753" stroke-width="1.4"/>
</svg>
